<?xml version="1.0" encoding="UTF-8"?>
<svg xmlns="http://www.w3.org/2000/svg" version="1.1" width="200" height="200" viewBox="0 0 200 200"><rect x="0" y="0" width="200" height="200" fill="#ffffff"/><g transform="scale(6.897)"><g transform="translate(0,0)"><path fill-rule="evenodd" d="M8 0L8 1L9 1L9 2L8 2L8 5L9 5L9 4L11 4L11 5L10 5L10 10L9 10L9 11L8 11L8 9L9 9L9 8L8 8L8 9L7 9L7 8L6 8L6 9L4 9L4 8L0 8L0 9L2 9L2 10L0 10L0 11L1 11L1 14L0 14L0 16L1 16L1 18L0 18L0 19L1 19L1 18L2 18L2 20L1 20L1 21L2 21L2 20L3 20L3 21L5 21L5 20L3 20L3 18L4 18L4 19L7 19L7 18L4 18L4 17L5 17L5 16L4 16L4 14L5 14L5 13L7 13L7 14L6 14L6 15L7 15L7 14L8 14L8 12L9 12L9 15L8 15L8 16L6 16L6 17L8 17L8 19L9 19L9 20L6 20L6 21L8 21L8 22L9 22L9 25L8 25L8 29L9 29L9 28L10 28L10 29L12 29L12 28L14 28L14 27L15 27L15 26L17 26L17 25L18 25L18 24L17 24L17 25L15 25L15 26L14 26L14 25L13 25L13 26L12 26L12 24L15 24L15 22L14 22L14 23L11 23L11 21L10 21L10 22L9 22L9 20L12 20L12 19L10 19L10 17L11 17L11 16L12 16L12 17L13 17L13 16L12 16L12 14L13 14L13 15L14 15L14 18L13 18L13 21L15 21L15 19L16 19L16 23L17 23L17 21L19 21L19 24L20 24L20 25L24 25L24 26L25 26L25 25L26 25L26 26L27 26L27 24L26 24L26 22L27 22L27 23L28 23L28 24L29 24L29 23L28 23L28 22L29 22L29 21L27 21L27 18L28 18L28 15L29 15L29 13L27 13L27 12L26 12L26 11L28 11L28 12L29 12L29 11L28 11L28 10L29 10L29 8L28 8L28 10L26 10L26 11L25 11L25 13L27 13L27 14L24 14L24 12L23 12L23 13L22 13L22 12L20 12L20 11L24 11L24 10L25 10L25 9L27 9L27 8L24 8L24 10L23 10L23 9L22 9L22 8L21 8L21 6L20 6L20 5L21 5L21 4L20 4L20 3L21 3L21 2L20 2L20 3L19 3L19 2L18 2L18 3L17 3L17 1L16 1L16 0L15 0L15 1L16 1L16 3L14 3L14 5L13 5L13 3L12 3L12 4L11 4L11 2L14 2L14 0L12 0L12 1L11 1L11 0L10 0L10 1L9 1L9 0ZM18 0L18 1L21 1L21 0ZM18 3L18 4L16 4L16 5L14 5L14 6L13 6L13 5L12 5L12 6L11 6L11 8L12 8L12 6L13 6L13 8L14 8L14 9L15 9L15 10L14 10L14 11L11 11L11 13L10 13L10 15L11 15L11 13L12 13L12 12L13 12L13 14L14 14L14 15L16 15L16 16L15 16L15 17L16 17L16 18L17 18L17 19L18 19L18 18L19 18L19 21L20 21L20 19L21 19L21 20L22 20L22 18L24 18L24 19L23 19L23 20L26 20L26 19L25 19L25 18L26 18L26 17L27 17L27 15L24 15L24 14L23 14L23 15L22 15L22 14L20 14L20 15L19 15L19 17L18 17L18 15L17 15L17 14L14 14L14 12L15 12L15 13L17 13L17 12L18 12L18 14L19 14L19 13L20 13L20 12L19 12L19 11L20 11L20 10L21 10L21 9L20 9L20 10L19 10L19 11L18 11L18 10L17 10L17 9L15 9L15 7L16 7L16 6L17 6L17 7L18 7L18 6L17 6L17 5L19 5L19 3ZM8 6L8 7L9 7L9 6ZM14 6L14 7L15 7L15 6ZM19 6L19 8L20 8L20 6ZM3 9L3 10L2 10L2 12L3 12L3 13L2 13L2 17L3 17L3 14L4 14L4 12L5 12L5 11L6 11L6 12L8 12L8 11L6 11L6 10L7 10L7 9L6 9L6 10L5 10L5 11L3 11L3 10L4 10L4 9ZM11 9L11 10L12 10L12 9ZM21 15L21 16L22 16L22 15ZM23 15L23 17L25 17L25 16L24 16L24 15ZM8 16L8 17L9 17L9 16ZM17 17L17 18L18 18L18 17ZM21 21L21 24L24 24L24 21ZM22 22L22 23L23 23L23 22ZM10 23L10 25L9 25L9 27L11 27L11 28L12 28L12 26L11 26L11 23ZM28 25L28 27L27 27L27 29L28 29L28 27L29 27L29 25ZM13 26L13 27L14 27L14 26ZM18 26L18 27L19 27L19 28L17 28L17 27L16 27L16 28L15 28L15 29L19 29L19 28L20 28L20 29L22 29L22 26ZM23 28L23 29L24 29L24 28ZM25 28L25 29L26 29L26 28ZM0 0L0 7L7 7L7 0ZM1 1L1 6L6 6L6 1ZM2 2L2 5L5 5L5 2ZM22 0L22 7L29 7L29 0ZM23 1L23 6L28 6L28 1ZM24 2L24 5L27 5L27 2ZM0 22L0 29L7 29L7 22ZM1 23L1 28L6 28L6 23ZM2 24L2 27L5 27L5 24Z" fill="#000000"/></g></g></svg>
